<?xml version="1.0" encoding="UTF-8" standalone="no"?>
<svg
   xmlns:dc="http://purl.org/dc/elements/1.1/"
   xmlns:cc="http://creativecommons.org/ns#"
   xmlns:rdf="http://www.w3.org/1999/02/22-rdf-syntax-ns#"
   xmlns:svg="http://www.w3.org/2000/svg"
   xmlns="http://www.w3.org/2000/svg"
   id="svg10"
   version="1.1"
   style="overflow:visible"
   viewBox="-250 -250 500 500"
   height="2000px"
   width="2000px">
  <metadata
     id="metadata16">
    <rdf:RDF>
      <cc:Work
         rdf:about="">
        <dc:format>image/svg+xml</dc:format>
        <dc:type
           rdf:resource="http://purl.org/dc/dcmitype/StillImage" />
      </cc:Work>
    </rdf:RDF>
  </metadata>
  <defs
     id="defs14" />
  <rect
     id="rect2"
     fill-opacity="0"
     fill="rgb(0,0,0)"
     height="500"
     width="500"
     y="-250"
     x="-250" />
  <svg
     id="svg8"
     version="1.1"
     y="-250"
     x="-250"
     viewBox="-250 -250 500 500"
     height="500"
     width="500"
     style="overflow:visible">
    <g
       style="fill:#ffffff;stroke-linejoin:round"
       id="g6">
      <path
         style="fill:none;stroke:#000000;stroke-width:4;stroke-linecap:butt;stroke-linejoin:round;stroke-opacity:1"
         id="path4"
         d="m -87.571,-117.402 c -28.5783,19.0475 -88.2898,79.512 -47.2571,175.267 48.3568,112.847 116.301,102.483 190.014,77.5871 50.2642,-16.9766 113.137,-52.5012 98.7399,-156.672 -14.3247,-103.648 -152.528,-158.519 -243.704,-108.983 -61.0136,33.149099 -93.6135,159.378 -36.6759,221.725 59.0497,64.6595 217.706,97.5758 259.962,-14.0728 47.8924,-126.54 1.11029,-185.5 -60.8363,-216.348 -53.2011,-26.4925 -116.332,-7.7702 -160.242,21.4965 z" />
    </g>
  </svg>
</svg>
